<svg width="275" height="275" viewBox="0 0 756 688" fill="none" xmlns="http://www.w3.org/2000/svg">
<g filter="url(#filter0_d_79_227)">
<g filter="url(#filter1_d_79_227)">
<path d="M40 24H712V632H40V24Z" fill="#233173"/>
</g>
<path d="M301.412 446.8V452.05C301.412 477.25 280.712 496.9 246.362 506.65L251.462 516.4C290.462 505.45 314.462 481 314.462 446.8H301.412ZM253.412 446.8V456.85H309.812V446.8H253.412ZM344.012 438.1V515.5H356.462V438.1H344.012ZM314.612 472.9V483.25H346.412V472.9H314.612ZM269.012 521.2V571.9H356.462V521.2H269.012ZM344.312 531.25V561.7H281.312V531.25H344.312ZM411.35 446.2V464.35C411.35 479.8 400.7 497.65 383 505.6L389.75 515.35C409.7 506.2 421.25 484.75 421.25 464.35V446.2H411.35ZM413.3 446.2V464.35C413.3 484.6 424.4 503.65 444.05 511.9L450.65 502.3C433.25 495.25 423.2 479.8 423.2 464.35V446.2H413.3ZM485.3 438.25V520.15H497.15V438.25H485.3ZM463.4 473.35V483.7H489.05V473.35H463.4ZM456.2 440.5V519.4H468.05V440.5H456.2ZM406.25 527.5V537.7H484.85V573.7H497.15V527.5H406.25Z" fill="white"/>
<mask id="mask0_79_227" style="mask-type:alpha" maskUnits="userSpaceOnUse" x="241" y="87" width="288" height="288">
<rect x="241" y="87" width="288" height="288" fill="#D9D9D9"/>
</mask>
<g mask="url(#mask0_79_227)">
<path d="M467.8 330.6L400.6 263.4C394.6 268.2 387.7 272 379.9 274.8C372.1 277.6 363.8 279 355 279C333.2 279 314.752 271.452 299.656 256.356C284.552 241.252 277 222.8 277 201C277 179.2 284.552 160.748 299.656 145.644C314.752 130.548 333.2 123 355 123C376.8 123 395.252 130.548 410.356 145.644C425.452 160.748 433 179.2 433 201C433 209.8 431.6 218.1 428.8 225.9C426 233.7 422.2 240.6 417.4 246.6L484.9 314.1C487.1 316.3 488.2 319 488.2 322.2C488.2 325.4 487 328.2 484.6 330.6C482.4 332.8 479.6 333.9 476.2 333.9C472.8 333.9 470 332.8 467.8 330.6ZM355 255C370 255 382.752 249.752 393.256 239.256C403.752 228.752 409 216 409 201C409 186 403.752 173.248 393.256 162.744C382.752 152.248 370 147 355 147C340 147 327.248 152.248 316.744 162.744C306.248 173.248 301 186 301 201C301 216 306.248 228.752 316.744 239.256C327.248 249.752 340 255 355 255Z" fill="white"/>
</g>
</g>
<defs>
<filter id="filter0_d_79_227" x="4" y="0" width="752" height="688" filterUnits="userSpaceOnUse" color-interpolation-filters="sRGB">
<feFlood flood-opacity="0" result="BackgroundImageFix"/>
<feColorMatrix in="SourceAlpha" type="matrix" values="0 0 0 0 0 0 0 0 0 0 0 0 0 0 0 0 0 0 127 0" result="hardAlpha"/>
<feOffset dx="4" dy="16"/>
<feGaussianBlur stdDeviation="20"/>
<feComposite in2="hardAlpha" operator="out"/>
<feColorMatrix type="matrix" values="0 0 0 0 0 0 0 0 0 0 0 0 0 0 0 0 0 0 0.25 0"/>
<feBlend mode="normal" in2="BackgroundImageFix" result="effect1_dropShadow_79_227"/>
<feBlend mode="normal" in="SourceGraphic" in2="effect1_dropShadow_79_227" result="shape"/>
</filter>
<filter id="filter1_d_79_227" x="0" y="0" width="752" height="688" filterUnits="userSpaceOnUse" color-interpolation-filters="sRGB">
<feFlood flood-opacity="0" result="BackgroundImageFix"/>
<feColorMatrix in="SourceAlpha" type="matrix" values="0 0 0 0 0 0 0 0 0 0 0 0 0 0 0 0 0 0 127 0" result="hardAlpha"/>
<feOffset dy="16"/>
<feGaussianBlur stdDeviation="20"/>
<feComposite in2="hardAlpha" operator="out"/>
<feColorMatrix type="matrix" values="0 0 0 0 0 0 0 0 0 0 0 0 0 0 0 0 0 0 0.25 0"/>
<feBlend mode="normal" in2="BackgroundImageFix" result="effect1_dropShadow_79_227"/>
<feBlend mode="normal" in="SourceGraphic" in2="effect1_dropShadow_79_227" result="shape"/>
</filter>
</defs>
</svg>
