<svg width="320" height="300" viewBox="0 0 320 300" fill="none" xmlns="http://www.w3.org/2000/svg">
<g filter="url(#filter0_i_79_401)">
<rect width="320" height="300" fill="#132154"/>
</g>
<mask id="mask0_79_401" style="mask-type:alpha" maskUnits="userSpaceOnUse" x="74" y="31" width="172" height="172">
<rect x="74" y="31" width="172" height="172" fill="#D9D9D9"/>
</mask>
<g mask="url(#mask0_79_401)">
<path d="M209.45 176.483L169.317 136.35C165.733 139.217 161.613 141.486 156.954 143.158C152.296 144.831 147.339 145.667 142.083 145.667C129.064 145.667 118.046 141.159 109.031 132.143C100.01 123.123 95.5 112.103 95.5 99.0833C95.5 86.0639 100.01 75.0439 109.031 66.0235C118.046 57.0078 129.064 52.5 142.083 52.5C155.103 52.5 166.123 57.0078 175.143 66.0235C184.159 75.0439 188.667 86.0639 188.667 99.0833C188.667 104.339 187.831 109.296 186.158 113.954C184.486 118.613 182.217 122.733 179.35 126.317L219.663 166.629C220.976 167.943 221.633 169.556 221.633 171.467C221.633 173.378 220.917 175.05 219.483 176.483C218.169 177.797 216.497 178.454 214.467 178.454C212.436 178.454 210.764 177.797 209.45 176.483ZM142.083 131.333C151.042 131.333 158.657 128.199 164.931 121.931C171.199 115.657 174.333 108.042 174.333 99.0833C174.333 90.125 171.199 82.5092 164.931 76.236C158.657 69.9676 151.042 66.8333 142.083 66.8333C133.125 66.8333 125.509 69.9676 119.236 76.236C112.968 82.5092 109.833 90.125 109.833 99.0833C109.833 108.042 112.968 115.657 119.236 121.931C125.509 128.199 133.125 131.333 142.083 131.333Z" fill="white"/>
</g>
<path d="M130.365 229.92V232.02C130.365 242.1 122.085 249.96 108.345 253.86L110.385 257.76C125.985 253.38 135.585 243.6 135.585 229.92H130.365ZM111.165 229.92V233.94H133.725V229.92H111.165ZM147.405 226.44V257.4H152.385V226.44H147.405ZM135.645 240.36V244.5H148.365V240.36H135.645ZM117.405 259.68V279.96H152.385V259.68H117.405ZM147.525 263.7V275.88H122.325V263.7H147.525ZM174.34 229.68V236.94C174.34 243.12 170.08 250.26 163 253.44L165.7 257.34C173.68 253.68 178.3 245.1 178.3 236.94V229.68H174.34ZM175.12 229.68V236.94C175.12 245.04 179.56 252.66 187.42 255.96L190.06 252.12C183.1 249.3 179.08 243.12 179.08 236.94V229.68H175.12ZM203.92 226.5V259.26H208.66V226.5H203.92ZM195.16 240.54V244.68H205.42V240.54H195.16ZM192.28 227.4V258.96H197.02V227.4H192.28ZM172.3 262.2V266.28H203.74V280.68H208.66V262.2H172.3Z" fill="white"/>
<defs>
<filter id="filter0_i_79_401" x="0" y="0" width="324" height="304" filterUnits="userSpaceOnUse" color-interpolation-filters="sRGB">
<feFlood flood-opacity="0" result="BackgroundImageFix"/>
<feBlend mode="normal" in="SourceGraphic" in2="BackgroundImageFix" result="shape"/>
<feColorMatrix in="SourceAlpha" type="matrix" values="0 0 0 0 0 0 0 0 0 0 0 0 0 0 0 0 0 0 127 0" result="hardAlpha"/>
<feOffset dx="4" dy="4"/>
<feGaussianBlur stdDeviation="25"/>
<feComposite in2="hardAlpha" operator="arithmetic" k2="-1" k3="1"/>
<feColorMatrix type="matrix" values="0 0 0 0 0 0 0 0 0 0 0 0 0 0 0 0 0 0 0.25 0"/>
<feBlend mode="normal" in2="shape" result="effect1_innerShadow_79_401"/>
</filter>
</defs>
</svg>
