<svg width="672" height="608" viewBox="0 0 672 608" fill="none" xmlns="http://www.w3.org/2000/svg">
<g filter="url(#filter0_i_79_197)">
<g filter="url(#filter1_i_79_197)">
<rect width="672" height="608" fill="#233173"/>
</g>
<path d="M280.062 500.35V549.85H292.362V500.35H280.062ZM225.012 496V506.35H347.562V496H225.012ZM279.912 437.35V440.8C279.912 457.75 257.112 472.6 232.662 475.9L237.012 485.8C265.512 481.45 290.862 464.2 290.862 440.8V437.35H279.912ZM281.562 437.35V440.8C281.562 463.9 306.762 481.6 335.112 485.8L339.612 475.9C315.312 472.6 292.362 457.6 292.362 440.8V437.35H281.562ZM236.862 430.75V440.95H335.712V430.75H236.862ZM280.062 414.1V434.35H292.362V414.1H280.062ZM396.75 439.6V446.35C396.75 465.4 383.4 482.2 363.3 489.1L369.45 498.85C392.1 490.9 406.95 470.8 406.95 446.35V439.6H396.75ZM398.85 439.6V446.35C398.85 469.75 414.3 488.95 436.95 496.45L443.1 486.55C423 480.25 409.2 464.35 409.2 446.35V439.6H398.85ZM366.75 432.25V442.3H439.05V432.25H366.75ZM396.75 415V436H409.2V415H396.75ZM434.55 455.8V466.15H468.75V455.8H434.55ZM462 414.25V515.35H474.45V414.25H462ZM387.9 536.5V546.7H478.2V536.5H387.9ZM387.9 506.35V542.05H400.35V506.35H387.9Z" fill="white"/>
<path d="M312.8 293.4H392C396.08 293.4 399.862 292.382 403.347 290.347C406.822 288.302 409.28 285.48 410.72 281.88L440.96 211.32C441.44 210.12 441.8 208.92 442.04 207.72C442.28 206.52 442.4 205.32 442.4 204.12V192.6C442.4 188.52 441.018 185.098 438.253 182.333C435.498 179.578 432.08 178.2 428 178.2H361.76L370.4 129.24C370.88 126.84 370.76 124.56 370.04 122.4C369.32 120.24 368.12 118.32 366.44 116.64L356 106.2L289.76 178.2C287.84 180.12 286.4 182.28 285.44 184.68C284.48 187.08 284 189.72 284 192.6V264.6C284 272.52 286.822 279.302 292.467 284.947C298.102 290.582 304.88 293.4 312.8 293.4ZM356 351C336.08 351 317.36 347.218 299.84 339.653C282.32 332.098 267.08 321.84 254.12 308.88C241.16 295.92 230.902 280.68 223.347 263.16C215.782 245.64 212 226.92 212 207C212 187.08 215.782 168.36 223.347 150.84C230.902 133.32 241.16 118.08 254.12 105.12C267.08 92.16 282.32 81.8976 299.84 74.3328C317.36 66.7776 336.08 63 356 63C375.92 63 394.64 66.7776 412.16 74.3328C429.68 81.8976 444.92 92.16 457.88 105.12C470.84 118.08 481.098 133.32 488.653 150.84C496.218 168.36 500 187.08 500 207C500 226.92 496.218 245.64 488.653 263.16C481.098 280.68 470.84 295.92 457.88 308.88C444.92 321.84 429.68 332.098 412.16 339.653C394.64 347.218 375.92 351 356 351ZM356 322.2C388.16 322.2 415.4 311.04 437.72 288.72C460.04 266.4 471.2 239.16 471.2 207C471.2 174.84 460.04 147.6 437.72 125.28C415.4 102.96 388.16 91.8 356 91.8C323.84 91.8 296.6 102.96 274.28 125.28C251.96 147.6 240.8 174.84 240.8 207C240.8 239.16 251.96 266.4 274.28 288.72C296.6 311.04 323.84 322.2 356 322.2Z" fill="white"/>
</g>
<defs>
<filter id="filter0_i_79_197" x="0" y="0" width="676" height="624" filterUnits="userSpaceOnUse" color-interpolation-filters="sRGB">
<feFlood flood-opacity="0" result="BackgroundImageFix"/>
<feBlend mode="normal" in="SourceGraphic" in2="BackgroundImageFix" result="shape"/>
<feColorMatrix in="SourceAlpha" type="matrix" values="0 0 0 0 0 0 0 0 0 0 0 0 0 0 0 0 0 0 127 0" result="hardAlpha"/>
<feOffset dx="4" dy="16"/>
<feGaussianBlur stdDeviation="75"/>
<feComposite in2="hardAlpha" operator="arithmetic" k2="-1" k3="1"/>
<feColorMatrix type="matrix" values="0 0 0 0 0 0 0 0 0 0 0 0 0 0 0 0 0 0 0.25 0"/>
<feBlend mode="normal" in2="shape" result="effect1_innerShadow_79_197"/>
</filter>
<filter id="filter1_i_79_197" x="0" y="0" width="676" height="624" filterUnits="userSpaceOnUse" color-interpolation-filters="sRGB">
<feFlood flood-opacity="0" result="BackgroundImageFix"/>
<feBlend mode="normal" in="SourceGraphic" in2="BackgroundImageFix" result="shape"/>
<feColorMatrix in="SourceAlpha" type="matrix" values="0 0 0 0 0 0 0 0 0 0 0 0 0 0 0 0 0 0 127 0" result="hardAlpha"/>
<feOffset dx="4" dy="16"/>
<feGaussianBlur stdDeviation="75"/>
<feComposite in2="hardAlpha" operator="arithmetic" k2="-1" k3="1"/>
<feColorMatrix type="matrix" values="0 0 0 0 0 0 0 0 0 0 0 0 0 0 0 0 0 0 0.5 0"/>
<feBlend mode="normal" in2="shape" result="effect1_innerShadow_79_197"/>
</filter>
</defs>
</svg>
