<svg width="320" height="300" viewBox="0 0 320 300" fill="none" xmlns="http://www.w3.org/2000/svg">
<g filter="url(#filter0_i_79_404)">
<rect width="320" height="300" fill="#132154"/>
</g>
<path d="M144.885 226.5V266.28H149.865V226.5H144.885ZM148.305 242.88V247.02H157.905V242.88H148.305ZM116.085 275.4V279.48H152.325V275.4H116.085ZM116.085 262.44V276.36H121.065V262.44H116.085ZM110.025 230.34V257.22H135.105V230.34H130.245V239.4H114.945V230.34H110.025ZM114.945 243.3H130.245V253.2H114.945V243.3ZM200.08 226.44V254.7H205.12V226.44H200.08ZM203.74 238.5V242.64H213.1V238.5H203.74ZM165.58 228.9V250.62H170.56V228.9H165.58ZM165.58 247.98V252.18H169.84C177.94 252.18 186.04 251.58 195.22 249.72L194.62 245.64C185.74 247.44 177.64 247.98 169.84 247.98H165.58ZM170.8 257.52V279.96H205.06V257.52H200.14V264.72H175.72V257.52H170.8ZM175.72 268.74H200.14V275.94H175.72V268.74Z" fill="white"/>
<mask id="mask0_79_404" style="mask-type:alpha" maskUnits="userSpaceOnUse" x="50" y="25" width="220" height="220">
<rect x="50" y="25" width="220" height="220" fill="#D9D9D9"/>
</mask>
<g mask="url(#mask0_79_404)">
<path d="M215 153.333C212.403 153.333 210.227 152.453 208.473 150.693C206.713 148.939 205.833 146.764 205.833 144.167V70.8333H132.5C129.903 70.8333 127.727 69.9533 125.973 68.1933C124.213 66.4394 123.333 64.2639 123.333 61.6667C123.333 59.0694 124.213 56.8908 125.973 55.1308C127.727 53.3769 129.903 52.5 132.5 52.5H215C217.597 52.5 219.773 53.3769 221.527 55.1308C223.287 56.8908 224.167 59.0694 224.167 61.6667V144.167C224.167 146.764 223.287 148.939 221.527 150.693C219.773 152.453 217.597 153.333 215 153.333ZM169.167 199.167C166.569 199.167 164.394 198.287 162.64 196.527C160.88 194.773 160 192.597 160 190V116.667H86.6667C84.0694 116.667 81.8939 115.787 80.14 114.027C78.38 112.273 77.5 110.097 77.5 107.5C77.5 104.903 78.38 102.724 80.14 100.964C81.8939 99.2103 84.0694 98.3333 86.6667 98.3333H169.167C171.764 98.3333 173.943 99.2103 175.703 100.964C177.456 102.724 178.333 104.903 178.333 107.5V190C178.333 192.597 177.456 194.773 175.703 196.527C173.943 198.287 171.764 199.167 169.167 199.167Z" fill="white"/>
</g>
<defs>
<filter id="filter0_i_79_404" x="0" y="0" width="324" height="304" filterUnits="userSpaceOnUse" color-interpolation-filters="sRGB">
<feFlood flood-opacity="0" result="BackgroundImageFix"/>
<feBlend mode="normal" in="SourceGraphic" in2="BackgroundImageFix" result="shape"/>
<feColorMatrix in="SourceAlpha" type="matrix" values="0 0 0 0 0 0 0 0 0 0 0 0 0 0 0 0 0 0 127 0" result="hardAlpha"/>
<feOffset dx="4" dy="4"/>
<feGaussianBlur stdDeviation="25"/>
<feComposite in2="hardAlpha" operator="arithmetic" k2="-1" k3="1"/>
<feColorMatrix type="matrix" values="0 0 0 0 0 0 0 0 0 0 0 0 0 0 0 0 0 0 0.25 0"/>
<feBlend mode="normal" in2="shape" result="effect1_innerShadow_79_404"/>
</filter>
</defs>
</svg>
