<svg width="672" height="608" viewBox="0 0 672 608" fill="none" xmlns="http://www.w3.org/2000/svg">
<g filter="url(#filter0_i_79_184)">
<rect width="672" height="608" fill="#233173"/>
<path d="M297.712 414.25V513.7H310.162V414.25H297.712ZM306.262 455.2V465.55H330.262V455.2H306.262ZM225.712 536.5V546.7H316.312V536.5H225.712ZM225.712 504.1V538.9H238.162V504.1H225.712ZM210.562 423.85V491.05H273.262V423.85H261.112V446.5H222.862V423.85H210.562ZM222.862 456.25H261.112V481H222.862V456.25ZM435.7 414.1V484.75H448.3V414.1H435.7ZM444.85 444.25V454.6H468.25V444.25H444.85ZM349.45 420.25V474.55H361.9V420.25H349.45ZM349.45 467.95V478.45H360.1C380.35 478.45 400.6 476.95 423.55 472.3L422.05 462.1C399.85 466.6 379.6 467.95 360.1 467.95H349.45ZM362.5 491.8V547.9H448.15V491.8H435.85V509.8H374.8V491.8H362.5ZM374.8 519.85H435.85V537.85H374.8V519.85Z" fill="white"/>
<path d="M461 267C455.9 267 451.628 265.272 448.184 261.816C444.728 258.372 443 254.1 443 249V105H299C293.9 105 289.628 103.272 286.184 99.816C282.728 96.372 281 92.1 281 87C281 81.9 282.728 77.622 286.184 74.166C289.628 70.722 293.9 69 299 69H461C466.1 69 470.372 70.722 473.816 74.166C477.272 77.622 479 81.9 479 87V249C479 254.1 477.272 258.372 473.816 261.816C470.372 265.272 466.1 267 461 267ZM371 357C365.9 357 361.628 355.272 358.184 351.816C354.728 348.372 353 344.1 353 339V195H209C203.9 195 199.628 193.272 196.184 189.816C192.728 186.372 191 182.1 191 177C191 171.9 192.728 167.622 196.184 164.166C199.628 160.722 203.9 159 209 159H371C376.1 159 380.378 160.722 383.834 164.166C387.278 167.622 389 171.9 389 177V339C389 344.1 387.278 348.372 383.834 351.816C380.378 355.272 376.1 357 371 357Z" fill="white"/>
</g>
<defs>
<filter id="filter0_i_79_184" x="0" y="0" width="676" height="624" filterUnits="userSpaceOnUse" color-interpolation-filters="sRGB">
<feFlood flood-opacity="0" result="BackgroundImageFix"/>
<feBlend mode="normal" in="SourceGraphic" in2="BackgroundImageFix" result="shape"/>
<feColorMatrix in="SourceAlpha" type="matrix" values="0 0 0 0 0 0 0 0 0 0 0 0 0 0 0 0 0 0 127 0" result="hardAlpha"/>
<feOffset dx="4" dy="16"/>
<feGaussianBlur stdDeviation="75"/>
<feComposite in2="hardAlpha" operator="arithmetic" k2="-1" k3="1"/>
<feColorMatrix type="matrix" values="0 0 0 0 0 0 0 0 0 0 0 0 0 0 0 0 0 0 0.5 0"/>
<feBlend mode="normal" in2="shape" result="effect1_innerShadow_79_184"/>
</filter>
</defs>
</svg>
