<svg width="320" height="300" viewBox="0 0 320 300" fill="none" xmlns="http://www.w3.org/2000/svg">
<g filter="url(#filter0_i_79_397)">
<rect width="320" height="300" fill="#132154"/>
</g>
<path d="M134.2 176.8H181.5C183.937 176.8 186.196 176.178 188.277 174.934C190.352 173.685 191.82 171.96 192.68 169.76L210.74 126.64C211.027 125.907 211.242 125.173 211.385 124.44C211.528 123.707 211.6 122.973 211.6 122.24V115.2C211.6 112.707 210.774 110.615 209.123 108.926C207.478 107.242 205.437 106.4 203 106.4H163.44L168.6 76.48C168.887 75.0133 168.815 73.62 168.385 72.3C167.955 70.98 167.238 69.8067 166.235 68.78L160 62.4L120.44 106.4C119.293 107.573 118.433 108.893 117.86 110.36C117.287 111.827 117 113.44 117 115.2V159.2C117 164.04 118.686 168.185 122.057 171.634C125.422 175.078 129.47 176.8 134.2 176.8ZM160 212C148.103 212 136.923 209.689 126.46 205.066C115.997 200.449 106.895 194.18 99.155 186.26C91.415 178.34 85.2889 169.027 80.7768 158.32C76.2589 147.613 74 136.173 74 124C74 111.827 76.2589 100.387 80.7768 89.68C85.2889 78.9733 91.415 69.66 99.155 61.74C106.895 53.82 115.997 47.5485 126.46 42.9256C136.923 38.3085 148.103 36 160 36C171.897 36 183.077 38.3085 193.54 42.9256C204.003 47.5485 213.105 53.82 220.845 61.74C228.585 69.66 234.711 78.9733 239.223 89.68C243.741 100.387 246 111.827 246 124C246 136.173 243.741 147.613 239.223 158.32C234.711 169.027 228.585 178.34 220.845 186.26C213.105 194.18 204.003 200.449 193.54 205.066C183.077 209.689 171.897 212 160 212ZM160 194.4C179.207 194.4 195.475 187.58 208.805 173.94C222.135 160.3 228.8 143.653 228.8 124C228.8 104.347 222.135 87.7 208.805 74.06C195.475 60.42 179.207 53.6 160 53.6C140.793 53.6 124.525 60.42 111.195 74.06C97.865 87.7 91.2 104.347 91.2 124C91.2 143.653 97.865 160.3 111.195 173.94C124.525 187.58 140.793 194.4 160 194.4Z" fill="white"/>
<path d="M129.825 260.94V280.74H134.745V260.94H129.825ZM107.805 259.2V263.34H156.825V259.2H107.805ZM129.765 235.74V237.12C129.765 243.9 120.645 249.84 110.865 251.16L112.605 255.12C124.005 253.38 134.145 246.48 134.145 237.12V235.74H129.765ZM130.425 235.74V237.12C130.425 246.36 140.505 253.44 151.845 255.12L153.645 251.16C143.925 249.84 134.745 243.84 134.745 237.12V235.74H130.425ZM112.545 233.1V237.18H152.085V233.1H112.545ZM129.825 226.44V234.54H134.745V226.44H129.825ZM176.5 236.64V239.34C176.5 246.96 171.16 253.68 163.12 256.44L165.58 260.34C174.64 257.16 180.58 249.12 180.58 239.34V236.64H176.5ZM177.34 236.64V239.34C177.34 248.7 183.52 256.38 192.58 259.38L195.04 255.42C187 252.9 181.48 246.54 181.48 239.34V236.64H177.34ZM164.5 233.7V237.72H193.42V233.7H164.5ZM176.5 226.8V235.2H181.48V226.8H176.5ZM191.62 243.12V247.26H205.3V243.12H191.62ZM202.6 226.5V266.94H207.58V226.5H202.6ZM172.96 275.4V279.48H209.08V275.4H172.96ZM172.96 263.34V277.62H177.94V263.34H172.96Z" fill="white"/>
<defs>
<filter id="filter0_i_79_397" x="0" y="0" width="324" height="304" filterUnits="userSpaceOnUse" color-interpolation-filters="sRGB">
<feFlood flood-opacity="0" result="BackgroundImageFix"/>
<feBlend mode="normal" in="SourceGraphic" in2="BackgroundImageFix" result="shape"/>
<feColorMatrix in="SourceAlpha" type="matrix" values="0 0 0 0 0 0 0 0 0 0 0 0 0 0 0 0 0 0 127 0" result="hardAlpha"/>
<feOffset dx="4" dy="4"/>
<feGaussianBlur stdDeviation="25"/>
<feComposite in2="hardAlpha" operator="arithmetic" k2="-1" k3="1"/>
<feColorMatrix type="matrix" values="0 0 0 0 0 0 0 0 0 0 0 0 0 0 0 0 0 0 0.25 0"/>
<feBlend mode="normal" in2="shape" result="effect1_innerShadow_79_397"/>
</filter>
</defs>
</svg>
