<svg width="672" height="608" viewBox="0 0 672 608" fill="none" xmlns="http://www.w3.org/2000/svg">
<g filter="url(#filter0_i_79_194)">
<rect width="672" height="608" fill="#233173"/>
<path d="M261.412 422.8V428.05C261.412 453.25 240.712 472.9 206.362 482.65L211.462 492.4C250.462 481.45 274.462 457 274.462 422.8H261.412ZM213.412 422.8V432.85H269.812V422.8H213.412ZM304.012 414.1V491.5H316.462V414.1H304.012ZM274.612 448.9V459.25H306.412V448.9H274.612ZM229.012 497.2V547.9H316.462V497.2H229.012ZM304.312 507.25V537.7H241.312V507.25H304.312ZM371.35 422.2V440.35C371.35 455.8 360.7 473.65 343 481.6L349.75 491.35C369.7 482.2 381.25 460.75 381.25 440.35V422.2H371.35ZM373.3 422.2V440.35C373.3 460.6 384.4 479.65 404.05 487.9L410.65 478.3C393.25 471.25 383.2 455.8 383.2 440.35V422.2H373.3ZM445.3 414.25V496.15H457.15V414.25H445.3ZM423.4 449.35V459.7H449.05V449.35H423.4ZM416.2 416.5V495.4H428.05V416.5H416.2ZM366.25 503.5V513.7H444.85V549.7H457.15V503.5H366.25Z" fill="white"/>
<mask id="mask0_79_194" style="mask-type:alpha" maskUnits="userSpaceOnUse" x="201" y="63" width="288" height="288">
<rect x="201" y="63" width="288" height="288" fill="#D9D9D9"/>
</mask>
<g mask="url(#mask0_79_194)">
<path d="M427.8 306.6L360.6 239.4C354.6 244.2 347.7 248 339.9 250.8C332.1 253.6 323.8 255 315 255C293.2 255 274.752 247.452 259.656 232.356C244.552 217.252 237 198.8 237 177C237 155.2 244.552 136.748 259.656 121.644C274.752 106.548 293.2 99 315 99C336.8 99 355.252 106.548 370.356 121.644C385.452 136.748 393 155.2 393 177C393 185.8 391.6 194.1 388.8 201.9C386 209.7 382.2 216.6 377.4 222.6L444.9 290.1C447.1 292.3 448.2 295 448.2 298.2C448.2 301.4 447 304.2 444.6 306.6C442.4 308.8 439.6 309.9 436.2 309.9C432.8 309.9 430 308.8 427.8 306.6ZM315 231C330 231 342.752 225.752 353.256 215.256C363.752 204.752 369 192 369 177C369 162 363.752 149.248 353.256 138.744C342.752 128.248 330 123 315 123C300 123 287.248 128.248 276.744 138.744C266.248 149.248 261 162 261 177C261 192 266.248 204.752 276.744 215.256C287.248 225.752 300 231 315 231Z" fill="white"/>
</g>
</g>
<defs>
<filter id="filter0_i_79_194" x="0" y="0" width="676" height="624" filterUnits="userSpaceOnUse" color-interpolation-filters="sRGB">
<feFlood flood-opacity="0" result="BackgroundImageFix"/>
<feBlend mode="normal" in="SourceGraphic" in2="BackgroundImageFix" result="shape"/>
<feColorMatrix in="SourceAlpha" type="matrix" values="0 0 0 0 0 0 0 0 0 0 0 0 0 0 0 0 0 0 127 0" result="hardAlpha"/>
<feOffset dx="4" dy="16"/>
<feGaussianBlur stdDeviation="75"/>
<feComposite in2="hardAlpha" operator="arithmetic" k2="-1" k3="1"/>
<feColorMatrix type="matrix" values="0 0 0 0 0 0 0 0 0 0 0 0 0 0 0 0 0 0 0.5 0"/>
<feBlend mode="normal" in2="shape" result="effect1_innerShadow_79_194"/>
</filter>
</defs>
</svg>
