<svg width="400" height="350" viewBox="0 0 320 300" fill="none" xmlns="http://www.w3.org/2000/svg">
<g filter="url(#filter0_i_79_407)">
<rect width="400" height="350" fill="#132154"/>
</g>
<path d="M84.75 205C81.7042 205 79.1493 203.968 77.0853 201.904C75.0284 199.847 74 197.296 74 194.25V97.5C74 94.4542 75.0284 91.8992 77.0853 89.8352C79.1493 87.7784 81.7042 86.75 84.75 86.75C87.7958 86.75 90.3507 87.7784 92.4147 89.8352C94.4716 91.8992 95.5 94.4542 95.5 97.5V183.5H181.5C184.546 183.5 187.101 184.532 189.165 186.596C191.222 188.653 192.25 191.204 192.25 194.25C192.25 197.296 191.222 199.847 189.165 201.904C187.101 203.968 184.546 205 181.5 205H84.75ZM138.5 151.25C135.454 151.25 132.903 150.218 130.846 148.154C128.782 146.097 127.75 143.546 127.75 140.5V43.75C127.75 40.7042 128.782 38.1493 130.846 36.0853C132.903 34.0284 135.454 33 138.5 33C141.546 33 144.101 34.0284 146.165 36.0853C148.222 38.1493 149.25 40.7042 149.25 43.75V129.75H235.25C238.296 129.75 240.847 130.778 242.904 132.835C244.968 134.899 246 137.454 246 140.5C246 143.546 244.968 146.097 242.904 148.154C240.847 150.218 238.296 151.25 235.25 151.25H138.5Z" fill="white"/>
<path d="M149.025 226.44V280.68H153.825V226.44H149.025ZM139.845 248.16V252.3H150.285V248.16H139.845ZM136.725 227.64V277.92H141.405V227.64H136.725ZM109.725 263.16V267.3H113.265C121.425 267.3 126.885 267.06 133.365 265.68L132.885 261.54C126.585 262.86 121.185 263.16 113.265 263.16H109.725ZM109.725 233.04V265.02H114.645V237.12H129.885V233.04H109.725ZM187.42 238.5V242.64H203.8V238.5H187.42ZM187.42 255.66V259.8H203.8V255.66H187.42ZM177.46 230.58C169.54 230.58 163.96 237.96 163.96 249.48C163.96 261.06 169.54 268.44 177.46 268.44C185.32 268.44 190.96 261.06 190.96 249.48C190.96 237.96 185.32 230.58 177.46 230.58ZM177.46 235.08C182.68 235.08 186.28 240.72 186.28 249.48C186.28 258.3 182.68 264.06 177.46 264.06C172.24 264.06 168.64 258.3 168.64 249.48C168.64 240.72 172.24 235.08 177.46 235.08ZM202.72 226.38V280.74H207.64V226.38H202.72Z" fill="white"/>
<defs>
<filter id="filter0_i_79_407" x="0" y="0" width="324" height="304" filterUnits="userSpaceOnUse" color-interpolation-filters="sRGB">
<feFlood flood-opacity="0" result="BackgroundImageFix"/>
<feBlend mode="normal" in="SourceGraphic" in2="BackgroundImageFix" result="shape"/>
<feColorMatrix in="SourceAlpha" type="matrix" values="0 0 0 0 0 0 0 0 0 0 0 0 0 0 0 0 0 0 127 0" result="hardAlpha"/>
<feOffset dx="4" dy="4"/>
<feGaussianBlur stdDeviation="25"/>
<feComposite in2="hardAlpha" operator="arithmetic" k2="-1" k3="1"/>
<feColorMatrix type="matrix" values="0 0 0 0 0 0 0 0 0 0 0 0 0 0 0 0 0 0 0.25 0"/>
<feBlend mode="normal" in2="shape" result="effect1_innerShadow_79_407"/>
</filter>
</defs>
</svg>
