<svg width="1061" height="201" viewBox="0 0 1061 201" fill="none" xmlns="http://www.w3.org/2000/svg">
<g filter="url(#filter0_dd_101_765)">
<path d="M53.1959 77.88V91.66H137.826V77.88H53.1959ZM40.5859 116.88V131.05H149.526V116.88H40.5859ZM86.2159 84.12V121.43H103.506V84.12H86.2159ZM53.1959 32.38V83.86H70.4859V46.29H136.916V32.38H53.1959ZM220.756 61.76V75.67H252.476V61.76H220.756ZM187.996 33.42V50.84C187.996 73.72 178.896 96.99 158.356 106.48L169.146 120.39C191.766 109.08 202.036 81.13 202.036 50.84V33.42H187.996ZM191.636 33.42V50.84C191.636 80.87 201.126 107.39 223.746 118.31L234.016 104.53C214.126 95.69 205.416 73.72 205.416 50.84V33.42H191.636ZM243.896 24.06V144.83H261.056V24.06H243.896ZM279.636 78.14V90.75H388.706V78.14H279.636ZM291.856 96.73V108.43H358.676V114.41H292.116V135.6H309.276V125.33H375.706V96.73H291.856ZM292.116 131.96V143.66H379.086V131.96H292.116ZM293.026 26.27V37.84H358.416V43.82H293.156V64.49H310.316V54.61H375.446V26.27H293.026ZM293.156 60.85V72.55H377.656V60.85H293.156ZM478.625 62.28V78.27H495.785V62.28H478.625ZM487.465 25.36C459.905 25.36 443.915 32.51 443.915 45.77C443.915 59.03 459.905 66.31 487.465 66.31C514.895 66.31 531.015 59.03 531.015 45.77C531.015 32.51 514.895 25.36 487.465 25.36ZM487.465 37.97C504.885 37.97 513.075 40.44 513.075 45.77C513.075 51.36 504.885 53.7 487.465 53.7C470.045 53.7 461.855 51.36 461.855 45.77C461.855 40.44 470.045 37.97 487.465 37.97ZM432.995 72.94V86.59H541.805V72.94H432.995ZM445.475 92.96V105.83H511.645V111.94H445.605V134.56H462.635V123.9H528.675V92.96H445.475ZM445.605 130.79V143.79H531.795V130.79H445.605ZM636.045 24.06V144.83H653.335V24.06H636.045ZM616.285 49.67V63.58H638.905V49.67H616.285ZM556.745 103.88V118.05H566.235C584.565 118.05 599.905 117.66 617.585 114.93L616.155 100.89C598.865 103.49 584.045 103.88 566.235 103.88H556.745ZM556.485 34.2V47.98H593.275V67.22H556.745V107H573.905V80.87H610.305V34.2H556.485ZM616.025 82.43V96.34H638.645V82.43H616.025ZM716.765 37.58V41.09C716.765 53.44 704.025 66.96 677.505 70.21L683.875 83.73C714.425 79.57 731.715 62.28 731.715 41.09V37.58H716.765ZM721.705 37.58V41.09C721.705 62.28 738.995 79.57 769.675 83.73L775.915 70.21C749.395 66.96 736.655 53.44 736.655 41.09V37.58H721.705ZM717.675 100.5V144.7H734.835V100.5H717.675ZM672.305 90.62V104.4H781.115V90.62H672.305ZM681.925 30.3V43.95H771.235V30.3H681.925ZM839.214 64.62V78.66H859.104V64.62H839.214ZM813.474 34.59V54.87C813.474 75.28 807.234 96.73 789.554 107.65L799.954 120.65C819.194 108.82 826.734 82.17 826.734 54.87V34.59H813.474ZM817.244 34.59V54.09C817.244 80.09 823.224 106.09 842.334 117.92L851.694 104.4C835.314 93.74 830.244 73.72 830.244 54.09V34.59H817.244ZM878.734 24.19V144.57H895.244V24.19H878.734ZM854.294 26.01V139.11H870.414V26.01H854.294ZM935.404 85.29V119.09H952.564V85.29H935.404ZM979.084 85.29V119.09H996.374V85.29H979.084ZM911.484 116.62V130.66H1020.42V116.62H911.484ZM965.824 30.04C939.824 30.04 920.844 42.78 920.844 62.41C920.844 82.04 939.824 94.65 965.824 94.65C991.694 94.65 1010.8 82.04 1010.8 62.41C1010.8 42.78 991.694 30.04 965.824 30.04ZM965.824 43.56C982.594 43.56 993.774 50.45 993.774 62.41C993.774 74.24 982.594 81.26 965.824 81.26C949.054 81.26 937.874 74.24 937.874 62.41C937.874 50.45 949.054 43.56 965.824 43.56Z" fill="white"/>
</g>
<defs>
<filter id="filter0_dd_101_765" x="0.585938" y="0.0599365" width="1059.84" height="200.77" filterUnits="userSpaceOnUse" color-interpolation-filters="sRGB">
<feFlood flood-opacity="0" result="BackgroundImageFix"/>
<feColorMatrix in="SourceAlpha" type="matrix" values="0 0 0 0 0 0 0 0 0 0 0 0 0 0 0 0 0 0 127 0" result="hardAlpha"/>
<feOffset dy="16"/>
<feGaussianBlur stdDeviation="20"/>
<feComposite in2="hardAlpha" operator="out"/>
<feColorMatrix type="matrix" values="0 0 0 0 0.376471 0 0 0 0 0.411765 0 0 0 0 0.745098 0 0 0 1 0"/>
<feBlend mode="color" in2="BackgroundImageFix" result="effect1_dropShadow_101_765"/>
<feColorMatrix in="SourceAlpha" type="matrix" values="0 0 0 0 0 0 0 0 0 0 0 0 0 0 0 0 0 0 127 0" result="hardAlpha"/>
<feOffset dy="16"/>
<feGaussianBlur stdDeviation="20"/>
<feComposite in2="hardAlpha" operator="out"/>
<feColorMatrix type="matrix" values="0 0 0 0 0 0 0 0 0 0 0 0 0 0 0 0 0 0 0.25 0"/>
<feBlend mode="normal" in2="effect1_dropShadow_101_765" result="effect2_dropShadow_101_765"/>
<feBlend mode="normal" in="SourceGraphic" in2="effect2_dropShadow_101_765" result="shape"/>
</filter>
</defs>
</svg>
