<svg width="756" height="688" viewBox="0 0 756 688" fill="none" xmlns="http://www.w3.org/2000/svg">
<g filter="url(#filter0_d_79_214)">
<g filter="url(#filter1_d_79_214)">
<path d="M40 24H712V632H40V24Z" fill="#233173"/>
</g>
<path d="M300.062 524.35V573.85H312.362V524.35H300.062ZM245.012 520V530.35H367.562V520H245.012ZM299.912 461.35V464.8C299.912 481.75 277.112 496.6 252.662 499.9L257.012 509.8C285.512 505.45 310.862 488.2 310.862 464.8V461.35H299.912ZM301.562 461.35V464.8C301.562 487.9 326.762 505.6 355.112 509.8L359.612 499.9C335.312 496.6 312.362 481.6 312.362 464.8V461.35H301.562ZM256.862 454.75V464.95H355.712V454.75H256.862ZM300.062 438.1V458.35H312.362V438.1H300.062ZM416.75 463.6V470.35C416.75 489.4 403.4 506.2 383.3 513.1L389.45 522.85C412.1 514.9 426.95 494.8 426.95 470.35V463.6H416.75ZM418.85 463.6V470.35C418.85 493.75 434.3 512.95 456.95 520.45L463.1 510.55C443 504.25 429.2 488.35 429.2 470.35V463.6H418.85ZM386.75 456.25V466.3H459.05V456.25H386.75ZM416.75 439V460H429.2V439H416.75ZM454.55 479.8V490.15H488.75V479.8H454.55ZM482 438.25V539.35H494.45V438.25H482ZM407.9 560.5V570.7H498.2V560.5H407.9ZM407.9 530.35V566.05H420.35V530.35H407.9Z" fill="white"/>
<path d="M332.8 317.4H412C416.08 317.4 419.862 316.382 423.347 314.347C426.822 312.302 429.28 309.48 430.72 305.88L460.96 235.32C461.44 234.12 461.8 232.92 462.04 231.72C462.28 230.52 462.4 229.32 462.4 228.12V216.6C462.4 212.52 461.018 209.098 458.253 206.333C455.498 203.578 452.08 202.2 448 202.2H381.76L390.4 153.24C390.88 150.84 390.76 148.56 390.04 146.4C389.32 144.24 388.12 142.32 386.44 140.64L376 130.2L309.76 202.2C307.84 204.12 306.4 206.28 305.44 208.68C304.48 211.08 304 213.72 304 216.6V288.6C304 296.52 306.822 303.302 312.467 308.947C318.102 314.582 324.88 317.4 332.8 317.4ZM376 375C356.08 375 337.36 371.218 319.84 363.653C302.32 356.098 287.08 345.84 274.12 332.88C261.16 319.92 250.902 304.68 243.347 287.16C235.782 269.64 232 250.92 232 231C232 211.08 235.782 192.36 243.347 174.84C250.902 157.32 261.16 142.08 274.12 129.12C287.08 116.16 302.32 105.898 319.84 98.3328C337.36 90.7776 356.08 87 376 87C395.92 87 414.64 90.7776 432.16 98.3328C449.68 105.898 464.92 116.16 477.88 129.12C490.84 142.08 501.098 157.32 508.653 174.84C516.218 192.36 520 211.08 520 231C520 250.92 516.218 269.64 508.653 287.16C501.098 304.68 490.84 319.92 477.88 332.88C464.92 345.84 449.68 356.098 432.16 363.653C414.64 371.218 395.92 375 376 375ZM376 346.2C408.16 346.2 435.4 335.04 457.72 312.72C480.04 290.4 491.2 263.16 491.2 231C491.2 198.84 480.04 171.6 457.72 149.28C435.4 126.96 408.16 115.8 376 115.8C343.84 115.8 316.6 126.96 294.28 149.28C271.96 171.6 260.8 198.84 260.8 231C260.8 263.16 271.96 290.4 294.28 312.72C316.6 335.04 343.84 346.2 376 346.2Z" fill="white"/>
<path d="M332.8 317.4H412C416.08 317.4 419.862 316.382 423.347 314.347C426.822 312.302 429.28 309.48 430.72 305.88L460.96 235.32C461.44 234.12 461.8 232.92 462.04 231.72C462.28 230.52 462.4 229.32 462.4 228.12V216.6C462.4 212.52 461.018 209.098 458.253 206.333C455.498 203.578 452.08 202.2 448 202.2H381.76L390.4 153.24C390.88 150.84 390.76 148.56 390.04 146.4C389.32 144.24 388.12 142.32 386.44 140.64L376 130.2L309.76 202.2C307.84 204.12 306.4 206.28 305.44 208.68C304.48 211.08 304 213.72 304 216.6V288.6C304 296.52 306.822 303.302 312.467 308.947C318.102 314.582 324.88 317.4 332.8 317.4ZM376 375C356.08 375 337.36 371.218 319.84 363.653C302.32 356.098 287.08 345.84 274.12 332.88C261.16 319.92 250.902 304.68 243.347 287.16C235.782 269.64 232 250.92 232 231C232 211.08 235.782 192.36 243.347 174.84C250.902 157.32 261.16 142.08 274.12 129.12C287.08 116.16 302.32 105.898 319.84 98.3328C337.36 90.7776 356.08 87 376 87C395.92 87 414.64 90.7776 432.16 98.3328C449.68 105.898 464.92 116.16 477.88 129.12C490.84 142.08 501.098 157.32 508.653 174.84C516.218 192.36 520 211.08 520 231C520 250.92 516.218 269.64 508.653 287.16C501.098 304.68 490.84 319.92 477.88 332.88C464.92 345.84 449.68 356.098 432.16 363.653C414.64 371.218 395.92 375 376 375ZM376 346.2C408.16 346.2 435.4 335.04 457.72 312.72C480.04 290.4 491.2 263.16 491.2 231C491.2 198.84 480.04 171.6 457.72 149.28C435.4 126.96 408.16 115.8 376 115.8C343.84 115.8 316.6 126.96 294.28 149.28C271.96 171.6 260.8 198.84 260.8 231C260.8 263.16 271.96 290.4 294.28 312.72C316.6 335.04 343.84 346.2 376 346.2Z" fill="white"/>
</g>
<defs>
<filter id="filter0_d_79_214" x="4" y="0" width="752" height="688" filterUnits="userSpaceOnUse" color-interpolation-filters="sRGB">
<feFlood flood-opacity="0" result="BackgroundImageFix"/>
<feColorMatrix in="SourceAlpha" type="matrix" values="0 0 0 0 0 0 0 0 0 0 0 0 0 0 0 0 0 0 127 0" result="hardAlpha"/>
<feOffset dx="4" dy="16"/>
<feGaussianBlur stdDeviation="20"/>
<feComposite in2="hardAlpha" operator="out"/>
<feColorMatrix type="matrix" values="0 0 0 0 0 0 0 0 0 0 0 0 0 0 0 0 0 0 0.25 0"/>
<feBlend mode="normal" in2="BackgroundImageFix" result="effect1_dropShadow_79_214"/>
<feBlend mode="normal" in="SourceGraphic" in2="effect1_dropShadow_79_214" result="shape"/>
</filter>
<filter id="filter1_d_79_214" x="0" y="0" width="752" height="688" filterUnits="userSpaceOnUse" color-interpolation-filters="sRGB">
<feFlood flood-opacity="0" result="BackgroundImageFix"/>
<feColorMatrix in="SourceAlpha" type="matrix" values="0 0 0 0 0 0 0 0 0 0 0 0 0 0 0 0 0 0 127 0" result="hardAlpha"/>
<feOffset dy="16"/>
<feGaussianBlur stdDeviation="20"/>
<feComposite in2="hardAlpha" operator="out"/>
<feColorMatrix type="matrix" values="0 0 0 0 0 0 0 0 0 0 0 0 0 0 0 0 0 0 0.25 0"/>
<feBlend mode="normal" in2="BackgroundImageFix" result="effect1_dropShadow_79_214"/>
<feBlend mode="normal" in="SourceGraphic" in2="effect1_dropShadow_79_214" result="shape"/>
</filter>
</defs>
</svg>
